# xmcd CD database file
#
# Track frame offsets:
#	150
#	22239
#	39354
#	59527
#	85643
#	103590
#	135074
#	153498
#	170127
#	190713
#	209591
#	227666
#	254110
#	273885
#
# Disc length: 3801 seconds
#
# Revision: 1
# Processed by: cddbd v1.5.1PL0 Copyright (c) Steve Scherf et al.
# Submitted via: CDex 1.51
#
DISCID=bf0ed70e
DTITLE=Willie Big Eyes Smith And The Juke Joint Rockers - Bluesin' It
DYEAR=2004
DGENRE=Blues
TTITLE0=You're Too Bad
TTITLE1=Blindman
TTITLE2=Who Let The Cat Out
TTITLE3=River's Invitation
TTITLE4=Nobody Knows
TTITLE5=Hard Times
TTITLE6=Going Away Baby
TTITLE7=No. 9 Train
TTITLE8=I Gotta Move
TTITLE9=You Need Love
TTITLE10=Hold It Right There
TTITLE11=Tigerman
TTITLE12=Don't Think I'm Crazy
TTITLE13=Liquified Boogie
EXTD=YEAR: 2004
EXTT0=
EXTT1=
EXTT2=
EXTT3=
EXTT4=
EXTT5=
EXTT6=
EXTT7=
EXTT8=
EXTT9=
EXTT10=
EXTT11=
EXTT12=
EXTT13=
PLAYORDER=
